<svg xmlns="http://www.w3.org/2000/svg" width="48" height="48" viewBox="0 0 12.7 12.7"><g stroke-width=".265" aria-label="S" font-family="Hexample LDR" font-size="6.35" paint-order="stroke fill markers" style="line-height:1.25;-inkscape-font-specification:&quot;Hexample LDR&quot;"><path fill="#404040" d="M2.117.53h8.466c.88 0 1.588.707 1.588 1.587v8.466c0 .88-.708 1.588-1.588 1.588H2.117c-.88 0-1.588-.708-1.588-1.588V2.117c0-.88.708-1.588 1.588-1.588"/><path fill="gray" d="M4.003 8.75a30 30 0 0 1-.387-.79c0-.008.84-.015 1.868-.015h1.868l.4-.797.398-.797-.186-.373a7 7 0 0 1-.186-.388c0-.008.39-.015.866-.015h.865l.194.387.194.388-.793 1.587-.794 1.588H4.39z"/><path fill="#0078d6" d="m2.997 6.738-.194-.387.793-1.588.794-1.588h3.92l.387.775c.213.426.388.782.388.79s-.841.015-1.869.015H5.348l-.399.797-.399.797.186.373c.102.205.186.38.186.388s-.39.015-.866.015h-.865Z"/></g></svg>