<?xml version="1.0" encoding="UTF-8" standalone="no"?>
<svg
   width="16"
   height="16"
   viewBox="0 0 16 16"
   version="1.1"
   xmlns="http://www.w3.org/2000/svg">
  <path
     d="m 8,14 c 3.3137,0 6,-2.6863 6,-6 C 14,4.68629 11.3137,2 8,2 4.68629,2 2,4.68629 2,8 c 0,3.3137 2.68629,6 6,6 z M 8,13 C 5.23858,13 3,10.7614 3,8 3,5.23858 5.23858,3 8,3 c 2.7614,0 5,2.23858 5,5 0,2.7614 -2.2386,5 -5,5 z"
     fill="#888888"
     fill-opacity="0.3" />
  <path
     d="M 3,8 C 3,5.23858 5.23858,3 8,3 8.7452493,3 8.7328249,2 8,2 4.68629,2 2,4.68629 2,8 2,8.7947496 3,8.7788927 3,8 Z"
     fill="#888888" />
</svg>
