<svg width="48" height="48" viewBox="0 0 12.7 12.7" xmlns="http://www.w3.org/2000/svg"><g aria-label="S" style="line-height:1.25;-inkscape-font-specification:'Hexample LDR'" font-size="6.35" font-family="'Hexample LDR'" stroke-width=".265" paint-order="stroke fill markers"><path d="m 15.128498,33.071968 c -0.804706,-1.610887 -1.463103,-2.954459 -1.463103,-2.985717 0,-0.03126 3.177875,-0.05683 7.061943,-0.05683 h 7.061943 l 1.506815,-3.011914 1.506817,-3.011915 -0.702544,-1.410411 c -0.386399,-0.775726 -0.702544,-1.435724 -0.702544,-1.466661 0,-0.03094 1.472373,-0.05625 3.271941,-0.05625 h 3.271941 l 0.733305,1.463135 0.733305,1.463134 -2.999928,6.001157 -2.999928,6.001157 h -7.40843 -7.40843 z" transform="matrix(.3468 0 0 .3468 -1.973 -1.973)" fill="gray"/><path d="m 11.326124,25.465733 -0.733305,-1.463134 2.999928,-6.001158 2.999928,-6.001157 h 7.408431 7.40843 l 1.463103,2.928885 c 0.804706,1.610887 1.463102,2.954459 1.463102,2.985717 0,0.03126 -3.177874,0.05683 -7.061942,0.05683 h -7.061943 l -1.506816,3.011915 -1.506816,3.011915 0.702544,1.410411 c 0.386399,0.775726 0.702543,1.435723 0.702543,1.466661 0,0.03094 -1.472373,0.05625 -3.27194,0.05625 H 12.05943 Z" transform="matrix(.3468 0 0 .3468 -1.973 -1.973)" fill="#0078d6"/></g></svg>